<svg width="24" height="21" viewBox="0 0 24 21" fill="none" xmlns="http://www.w3.org/2000/svg">
<path d="M2 18.6278V0.637787H0V19.6861C0 19.9667 0.105357 20.2359 0.292893 20.4344C0.48043 20.6328 0.734784 20.7443 1 20.7443H24V18.6278H2Z" fill="white"/>
<path d="M9.00003 10.1619C9.00003 9.88127 8.89467 9.6121 8.70714 9.41364C8.5196 9.21519 8.26525 9.10369 8.00003 9.10369H5.00003C4.73481 9.10369 4.48046 9.21519 4.29292 9.41364C4.10539 9.6121 4.00003 9.88127 4.00003 10.1619V17.5696H9.00003V10.1619Z" fill="white"/>
<path d="M16 5.92898C16 5.64831 15.8946 5.37915 15.7071 5.18069C15.5196 4.98223 15.2652 4.87074 15 4.87074H12C11.7348 4.87074 11.4804 4.98223 11.2929 5.18069C11.1054 5.37915 11 5.64831 11 5.92898V17.5696H16V5.92898Z" fill="white"/>
<path d="M23 1.69603C23 1.41536 22.8946 1.1462 22.7071 0.947738C22.5196 0.74928 22.2652 0.637787 22 0.637787H19C18.7348 0.637787 18.4804 0.74928 18.2929 0.947738C18.1054 1.1462 18 1.41536 18 1.69603V17.5696H23V1.69603Z" fill="white"/>
</svg>
