<svg width="23" height="25" viewBox="0 0 23 25" fill="none" xmlns="http://www.w3.org/2000/svg">
<path d="M18.1159 15.2898C17.6642 15.2898 17.3254 15.4093 16.9866 15.4093L13.7118 11.9438L16.422 9.07577L19.9227 7.76125L22.5199 3.33969C22.6329 3.10069 22.6329 2.74219 22.5199 2.62269L21.1648 1.18867C20.939 0.949664 20.6002 0.949664 20.3744 1.06917L16.0832 3.6982L14.7281 7.52225L12.0179 10.3903L8.96892 6.92474C8.96892 6.56624 9.08185 6.20773 9.08185 5.72973C9.08185 2.62269 6.25872 0.352156 3.43559 1.06917L5.12947 2.86169C6.03287 3.8177 6.03287 5.25172 5.12947 6.20773C4.22607 7.16374 2.87097 7.16374 1.96757 6.20773L0.160766 4.53471C-0.742634 8.00025 2.30634 11.3463 5.69409 10.2708L8.96892 13.7363L7.61382 15.1703C6.82335 14.9313 6.03287 15.1703 5.46824 15.7679L0.838317 20.6674C-0.0650837 21.6234 -0.178009 23.0574 0.612467 24.0135C1.51587 25.089 2.98389 25.089 3.88729 24.133L8.63015 19.1139C9.19477 18.5164 9.42062 17.5604 9.19477 16.8434L10.5499 15.4093L13.8247 18.8749C13.7118 19.2334 13.7118 19.7114 13.7118 20.0699C13.7118 23.1769 16.5349 25.4475 19.358 24.7305L17.6642 22.9379C16.7608 21.9819 16.7608 20.5479 17.6642 19.5919C18.5676 18.6359 19.9227 18.6359 20.8261 19.5919L22.5199 21.3844C23.3104 18.2774 21.0519 15.2898 18.1159 15.2898Z" fill="white"/>
</svg>
