<svg width="24" height="20" viewBox="0 0 24 20" fill="none" xmlns="http://www.w3.org/2000/svg">
<path d="M23.0494 7.91071C22.4156 6.42843 21.5629 5.15184 20.4915 4.08019C19.4201 3.00874 18.1432 2.15612 16.6609 1.52223C15.1785 0.888348 13.6253 0.571335 12 0.571335C10.3749 0.571335 8.82138 0.888395 7.33928 1.52223C5.85718 2.15635 4.58041 3.00874 3.509 4.08019C2.43736 5.15184 1.58488 6.42843 0.950851 7.91071C0.316966 9.393 0 10.9464 0 12.5715C0 14.9106 0.629429 17.0672 1.88838 19.0404C2.05791 19.2993 2.29902 19.4287 2.61158 19.4287H21.3885C21.7009 19.4287 21.942 19.2993 22.1115 19.0404C23.3706 17.0583 24 14.9019 24 12.5715C24 10.9464 23.6832 9.393 23.0494 7.91071ZM10.7879 2.78799C11.1229 2.4531 11.5268 2.28563 12 2.28563C12.4733 2.28563 12.8772 2.45315 13.212 2.78799C13.5469 3.12268 13.7145 3.52676 13.7145 3.99998C13.7145 4.4732 13.5469 4.87714 13.212 5.21197C12.8772 5.54681 12.4733 5.71433 12 5.71433C11.5268 5.71433 11.1227 5.54681 10.7879 5.21197C10.4532 4.87709 10.2856 4.4732 10.2856 3.99998C10.2856 3.52676 10.453 3.12273 10.7879 2.78799ZM4.64069 13.7835C4.30585 14.1182 3.90177 14.2861 3.42855 14.2861C2.95547 14.2861 2.55139 14.1182 2.21656 13.7835C1.88167 13.449 1.71439 13.0447 1.71439 12.5715C1.71439 12.0983 1.88167 11.6944 2.21656 11.3595C2.55144 11.0246 2.95547 10.8572 3.42855 10.8572C3.90177 10.8572 4.30604 11.0246 4.64069 11.3595C4.97538 11.6944 5.14294 12.0983 5.14294 12.5715C5.14294 13.0447 4.97538 13.4486 4.64069 13.7835ZM7.21221 7.78349C6.87718 8.11829 6.47329 8.28585 6.00002 8.28585C5.52676 8.28585 5.12273 8.1181 4.78784 7.78349C4.45314 7.4488 4.28563 7.04472 4.28563 6.5715C4.28563 6.09828 4.45296 5.69434 4.78784 5.3595C5.12287 5.02462 5.52676 4.85715 6.00002 4.85715C6.47324 4.85715 6.87732 5.02467 7.21221 5.3595C7.5469 5.69439 7.71442 6.09828 7.71442 6.5715C7.71442 7.04458 7.54686 7.44861 7.21221 7.78349ZM14.799 7.89739L13.4462 13.0134C13.893 13.3168 14.2144 13.723 14.4109 14.2321C14.607 14.741 14.634 15.2634 14.4911 15.7991C14.3126 16.4866 13.9152 17.009 13.299 17.366C12.6829 17.7231 12.0312 17.8126 11.3436 17.6339C10.6562 17.4554 10.1337 17.0581 9.77669 16.442C9.41966 15.8257 9.33039 15.1741 9.50893 14.4864C9.65172 13.9509 9.93299 13.5112 10.3527 13.1676C10.7722 12.8237 11.2499 12.6297 11.7856 12.5849L13.1383 7.46883C13.2007 7.23672 13.3347 7.0602 13.5399 6.93964C13.7454 6.81932 13.9595 6.79028 14.1829 6.85272C14.4064 6.9153 14.5781 7.04688 14.6985 7.2477C14.8193 7.4488 14.8526 7.66528 14.799 7.89739ZM16.788 7.78349C16.4531 7.4488 16.2855 7.04472 16.2855 6.5715C16.2855 6.09828 16.4531 5.69434 16.788 5.3595C17.1229 5.02467 17.5268 4.85715 18 4.85715C18.4732 4.85715 18.8771 5.02467 19.212 5.3595C19.5469 5.69434 19.7145 6.09828 19.7145 6.5715C19.7145 7.04458 19.5469 7.44866 19.212 7.78349C18.8771 8.11829 18.4732 8.28585 18 8.28585C17.5268 8.28585 17.1229 8.11829 16.788 7.78349ZM21.7834 13.7835C21.4486 14.1182 21.0447 14.2861 20.5714 14.2861C20.0982 14.2861 19.6943 14.1182 19.3594 13.7835C19.0245 13.449 18.8571 13.0447 18.8571 12.5715C18.8571 12.0983 19.0245 11.6944 19.3594 11.3595C19.6943 11.0246 20.0982 10.8572 20.5714 10.8572C21.0447 10.8572 21.4486 11.0246 21.7834 11.3595C22.1183 11.6944 22.2856 12.0983 22.2856 12.5715C22.2856 13.0447 22.1183 13.4486 21.7834 13.7835Z" fill="white"/>
</svg>
