<svg width="24" height="26" viewBox="0 0 24 26" fill="none" xmlns="http://www.w3.org/2000/svg">
<g clip-path="url(#clip0)">
<path d="M23.4353 9.60541L21.5907 9.20441C21.4303 8.71332 21.2316 8.23431 20.9971 7.77289L22.0182 6.18445C22.2006 5.90063 22.1605 5.52802 21.9221 5.28961L19.0485 2.41595C18.8101 2.17755 18.4374 2.13745 18.1536 2.31982L16.5652 3.341C16.1038 3.10645 15.6248 2.90778 15.1337 2.74738L14.7327 0.902771C14.6611 0.573181 14.3692 0.338074 14.0319 0.338074H9.96808C9.6308 0.338074 9.33893 0.573181 9.26733 0.902771L8.86633 2.74738C8.37524 2.90778 7.89624 3.10645 7.43481 3.341L5.84637 2.31982C5.56256 2.13745 5.18994 2.17755 4.95154 2.41595L2.07788 5.28961C1.83948 5.52802 1.79938 5.90063 1.98175 6.18445L3.00293 7.77289C2.76837 8.23431 2.5697 8.71332 2.4093 9.20441L0.564697 9.60541C0.235107 9.67719 0 9.96887 0 10.3062V14.37C0 14.7073 0.235107 14.999 0.564697 15.0707L2.4093 15.4717C2.5697 15.9628 2.76837 16.4418 3.00293 16.9033L1.98175 18.4917C1.79938 18.7755 1.83948 19.1481 2.07788 19.3865L4.95154 22.2602C5.18994 22.4986 5.56256 22.5387 5.84637 22.3563L7.43481 21.3351C7.89624 21.5697 8.37524 21.7684 8.86633 21.9288L9.26733 23.7734C9.33893 24.103 9.6308 24.3381 9.96808 24.3381H14.0319C14.3692 24.3381 14.6611 24.103 14.7327 23.7734L15.1337 21.9288C15.6248 21.7684 16.1038 21.5697 16.5652 21.3351L18.1536 22.3563C18.4374 22.5387 18.8101 22.4988 19.0485 22.2602L21.9221 19.3865C22.1605 19.1481 22.2006 18.7755 22.0182 18.4917L20.9971 16.9033C21.2316 16.4418 21.4303 15.9628 21.5907 15.4717L23.4353 15.0707C23.7649 14.999 24 14.7073 24 14.37V10.3062C24 9.96887 23.7649 9.67719 23.4353 9.60541ZM16.3028 12.3381C16.3028 14.7106 14.3725 16.6409 12 16.6409C9.6275 16.6409 7.6972 14.7106 7.6972 12.3381C7.6972 9.96558 9.6275 8.03528 12 8.03528C14.3725 8.03528 16.3028 9.96558 16.3028 12.3381Z" fill="white"/>
</g>
<defs>
<clipPath id="clip0">
<rect width="24" height="25.3977" fill="white" transform="translate(0 0.338074)"/>
</clipPath>
</defs>
</svg>
