<svg width="30" height="31" viewBox="0 0 30 31" fill="none" xmlns="http://www.w3.org/2000/svg">
<g clip-path="url(#clip0)">
<path d="M15 0.16478C6.72938 0.16478 0 6.89416 0 15.1648C0 23.4354 6.72938 30.1648 15 30.1648C23.2706 30.1648 30 23.4354 30 15.1648C30 6.89416 23.2706 0.16478 15 0.16478ZM20.6062 7.68353C22.6744 7.68353 24.3562 9.36541 24.3562 11.4335C24.3562 11.951 23.9362 12.371 23.4187 12.371C22.9012 12.371 22.4812 11.951 22.4812 11.4335C22.4812 10.4004 21.6412 9.55853 20.6062 9.55853C19.5712 9.55853 18.7312 10.4004 18.7312 11.4335C18.7312 11.951 18.3112 12.371 17.7937 12.371C17.2762 12.371 16.8562 11.951 16.8562 11.4335C16.8562 9.36541 18.5381 7.68353 20.6062 7.68353ZM9.35625 7.68353C11.4244 7.68353 13.1062 9.36541 13.1062 11.4335C13.1062 11.951 12.6862 12.371 12.1687 12.371C11.6512 12.371 11.2312 11.951 11.2312 11.4335C11.2312 10.4004 10.3894 9.55853 9.35625 9.55853C8.32312 9.55853 7.48125 10.4004 7.48125 11.4335C7.48125 11.951 7.06125 12.371 6.54375 12.371C6.02625 12.371 5.60625 11.951 5.60625 11.4335C5.60625 9.36541 7.28812 7.68353 9.35625 7.68353ZM14.9812 26.4335C9.96562 26.4335 5.51625 23.0679 4.16062 18.251C4.08 17.9679 4.13625 17.666 4.31438 17.4317C4.49063 17.1973 4.76813 17.0585 5.0625 17.0585H24.9C25.1925 17.0585 25.47 17.1954 25.6463 17.4298C25.8225 17.6642 25.8806 17.966 25.8019 18.251C24.4444 23.0679 19.995 26.4335 14.9812 26.4335Z" fill="white"/>
</g>
<defs>
<clipPath id="clip0">
<rect width="30" height="30" fill="white" transform="translate(0 0.16478)"/>
</clipPath>
</defs>
</svg>
